<svg width="638" height="284" viewBox="0 0 638 284" fill="none" xmlns="http://www.w3.org/2000/svg">
<path d="M613 228V207.5L638 251L554.5 265L613 228Z" fill="#4F4F4F" fill-opacity="0.05"/>
<path d="M390.5 192.5V172L415.5 215.5L332 229.5L390.5 192.5Z" fill="#4F4F4F" fill-opacity="0.05"/>
<path d="M128.5 204.5V184L153.5 227.5L70 241.5L128.5 204.5Z" fill="#4F4F4F" fill-opacity="0.05"/>
<path d="M158 45.5V200.5L283.494 262L392 193.5V45.5L279.658 2L158 45.5ZM158 45.5L283.494 106.5" stroke="#CFCFCF" stroke-width="2"/>
<path d="M284.59 106.5L392 46.5" stroke="#CFCFCF" stroke-width="2"/>
<path d="M284.59 106.5V261.5" stroke="#CFCFCF" stroke-width="2"/>
<path d="M358.855 95C346.557 98.3872 338.619 102.994 329.04 109.643C325.571 112.051 317.785 115.286 316.09 118.734C313.758 123.475 331.599 122.259 333.256 122.218C346.448 121.892 359.187 119.303 372.257 118.734C379.381 118.424 362.384 129.045 362.093 129.24C346.179 139.87 328.963 149.382 312.777 159.778C310.81 161.042 302.633 166.492 300.279 168.488C299.762 168.927 298.586 169.605 299.149 170.012C301.794 171.925 306.346 168.534 309.916 167.726C322.485 164.882 339.91 159.861 353.359 161.357C361.491 162.262 347.697 176.601 346.206 178.504C340.725 185.506 328.231 197.204 329.868 205.885C330.886 211.281 356.554 193.523 358.554 192.222C362.193 189.854 365.464 187.651 369.245 185.472C372.522 183.584 362.84 189.382 359.533 191.242C348.277 197.572 330.733 204.098 322.414 212.69C321.75 213.376 324.784 212.749 325.878 212.472C333.223 210.613 340.401 208.26 347.411 205.831C353.071 203.87 358.543 201.62 364.276 199.843" stroke="#BDBDBD" stroke-linecap="round" stroke-linejoin="round"/>
<path d="M269 109.922C253.641 112.339 237.033 107.128 222.192 104.307C212.492 102.464 202.842 100.249 193.031 98.8032C190.603 98.4452 185.278 97.3986 182.622 98.4696C179.209 99.8457 200.433 115.997 201.097 116.483C213.288 125.398 228.859 134.598 235.91 147.061C239.62 153.618 228.322 151.284 224.949 150.619C214.17 148.494 204.237 144.564 194.961 139.722C186.05 135.07 191.983 137.191 196.754 138.777C211.414 143.65 226.468 147.542 241.287 152.064C247.192 153.866 263.703 159.58 257.419 160.07C246.179 160.947 231.722 155.863 221.158 153.843C210.301 151.768 202.632 150.376 191.79 149.062C190.42 148.896 177.525 146.724 175.108 148.284C173.069 149.599 200.655 171.429 202.545 172.969C202.893 173.253 214.359 180.805 211.368 183.309C208.83 185.435 200.71 185.171 197.512 185.422C181.367 186.688 199.082 187.445 205.302 188.035C212.035 188.674 218.178 189.186 224.88 189.925C227.137 190.174 229.408 190.376 231.636 190.759C232.229 190.861 233.827 191.142 233.291 191.371C232.104 191.877 230.633 191.712 229.292 191.76C218.29 192.157 207.199 191.808 196.202 191.482C192.308 191.367 182.589 190.079 184.621 192.761C192.497 203.155 216.601 208.348 229.844 212.331C235.367 213.991 240.845 215.33 246.664 216" stroke="#BDBDBD" stroke-linecap="round" stroke-linejoin="round"/>
<path d="M270.352 19C265.979 22.0776 261.717 23.1816 256.79 25.3355C246.147 29.9879 237.069 36.8758 226.758 41.9727C225.288 42.6991 220.945 42.9411 222.237 43.93C223.968 45.2555 232.503 44.0016 234.454 43.8785C253.367 42.685 271.419 36.2062 290.266 34.3494C291.962 34.1824 296.298 33.7306 295.325 35.0706C290.956 41.0878 281.165 45.8119 274.873 49.4929C266.89 54.1634 240.896 63.9926 250.008 61.9578C267.694 58.0085 283.246 42.9237 298.07 33.5768C307.111 27.876 300.117 34.8108 297.047 37.955C286.958 48.2886 275.996 58.2221 267.069 69.5295C263.18 74.4562 266.374 73.537 270.46 71.8474C281.537 67.2674 292.04 61.5649 303.291 57.3221C305.42 56.5192 313.026 52.9319 315.938 53.768C316.925 54.0513 307.949 62.8869 307.704 63.1425C304.454 66.5313 301.723 70.1201 298.877 73.8047C298.493 74.3026 297.05 75.4194 297.263 74.8349C298.431 71.6297 301.706 66.7842 303.398 64.4302C308.398 57.4769 314.223 49.4441 321.051 43.93C324.099 41.4692 315.696 49.5849 312.978 52.3773C307.347 58.1641 322.612 51.5032 325.034 50.626C326.882 49.9568 338.593 47.9098 335.475 51.2441C329.57 57.5601 323.425 65.4046 316.315 70.5082C313.002 72.8865 321.675 64.4517 324.603 61.6488" stroke="#BDBDBD" stroke-linecap="round" stroke-linejoin="round"/>
<path d="M430 113.796V234.219L527.607 282L612 228.781V113.796L524.623 80L430 113.796ZM430 113.796L527.607 161.188" stroke="#CFCFCF" stroke-width="2"/>
<path d="M528.459 161.188L612 114.573" stroke="#CFCFCF" stroke-width="2"/>
<path d="M528.459 161.188V281.612" stroke="#CFCFCF" stroke-width="2"/>
<path d="M586.221 152.254C576.656 154.885 570.482 158.465 563.031 163.63C560.333 165.501 554.278 168.015 552.959 170.693C551.145 174.377 565.021 173.432 566.31 173.4C576.57 173.147 586.479 171.136 596.644 170.693C602.185 170.452 588.966 178.704 588.739 178.856C576.362 187.114 562.971 194.504 550.382 202.582C548.852 203.563 542.492 207.798 540.661 209.348C540.259 209.689 539.344 210.216 539.783 210.533C541.84 212.018 545.38 209.384 548.157 208.756C557.933 206.547 571.485 202.646 581.946 203.808C588.271 204.511 577.542 215.651 576.383 217.13C572.119 222.57 562.402 231.658 563.675 238.403C564.467 242.595 584.431 228.799 585.986 227.788C588.816 225.948 591.361 224.236 594.302 222.544C596.851 221.077 589.32 225.582 586.748 227.027C577.993 231.944 564.348 237.015 557.878 243.69C557.361 244.223 559.721 243.736 560.572 243.521C566.285 242.077 571.867 240.248 577.32 238.361C581.721 236.838 585.978 235.089 590.437 233.709" stroke="#BDBDBD" stroke-linecap="round" stroke-linejoin="round"/>
<path d="M516.333 163.847C504.388 165.725 491.47 161.676 479.927 159.485C472.383 158.053 464.877 156.332 457.246 155.209C455.357 154.931 451.216 154.117 449.15 154.949C446.496 156.019 463.003 168.567 463.52 168.944C473.002 175.871 485.113 183.018 490.597 192.701C493.482 197.796 484.695 195.982 482.071 195.465C473.688 193.815 465.962 190.762 458.748 186.999C451.817 183.385 456.431 185.033 460.142 186.265C471.544 190.051 483.253 193.075 494.779 196.588C499.372 197.988 512.213 202.427 507.325 202.808C498.583 203.49 487.339 199.54 479.123 197.971C470.678 196.358 464.714 195.277 456.281 194.256C455.216 194.127 445.186 192.44 443.306 193.651C441.721 194.673 463.176 211.634 464.646 212.829C464.917 213.05 473.835 218.918 471.509 220.863C469.534 222.515 463.219 222.31 460.732 222.505C448.175 223.488 461.953 224.076 466.79 224.535C472.027 225.031 476.805 225.429 482.018 226.004C483.773 226.197 485.539 226.354 487.272 226.651C487.734 226.731 488.976 226.949 488.559 227.127C487.636 227.52 486.492 227.391 485.449 227.429C476.892 227.738 468.266 227.466 459.713 227.213C456.684 227.123 449.125 226.123 450.705 228.206C456.831 236.282 475.579 240.317 485.878 243.411C490.174 244.701 494.435 245.741 498.961 246.262" stroke="#BDBDBD" stroke-linecap="round" stroke-linejoin="round"/>
<path d="M517.385 93.2077C513.984 95.5987 510.669 96.4565 506.836 98.1299C498.559 101.744 491.498 107.096 483.478 111.056C482.335 111.62 478.958 111.808 479.962 112.576C481.309 113.606 487.947 112.632 489.464 112.536C504.175 111.609 518.215 106.576 532.874 105.133C534.193 105.003 537.565 104.652 536.808 105.693C533.41 110.368 525.795 114.039 520.902 116.898C514.692 120.527 494.475 128.163 501.562 126.583C515.318 123.514 527.413 111.795 538.943 104.533C545.976 100.104 540.536 105.491 538.148 107.934C530.301 115.963 521.775 123.68 514.832 132.465C511.807 136.293 514.291 135.579 517.469 134.266C526.084 130.708 534.253 126.277 543.004 122.981C544.66 122.357 550.576 119.57 552.841 120.22C553.608 120.44 546.627 127.304 546.436 127.503C543.909 130.136 541.785 132.924 539.571 135.787C539.272 136.174 538.15 137.041 538.315 136.587C539.224 134.097 541.771 130.332 543.088 128.503C546.976 123.101 551.507 116.86 556.818 112.576C559.188 110.665 552.652 116.97 550.539 119.139C546.159 123.635 558.031 118.46 559.915 117.779C561.353 117.259 570.461 115.668 568.036 118.259C563.444 123.166 558.664 129.261 553.134 133.226C550.557 135.073 557.303 128.52 559.581 126.343" stroke="#BDBDBD" stroke-linecap="round" stroke-linejoin="round"/>
<path d="M1 124.59V208.648L69.11 242L128 204.852V124.59L67.0281 101L1 124.59ZM1 124.59L69.11 157.671" stroke="#CFCFCF" stroke-width="2"/>
<path d="M69.7048 157.671L128 125.133" stroke="#CFCFCF" stroke-width="2"/>
<path d="M69.7048 157.671V241.729" stroke="#CFCFCF" stroke-width="2"/>
<path d="M110.011 151.435C103.337 153.272 99.0282 155.77 93.8292 159.376C91.9466 160.681 87.721 162.436 86.8007 164.306C85.5352 166.877 95.2181 166.217 96.1175 166.195C103.277 166.018 110.191 164.614 117.285 164.306C121.151 164.137 111.926 169.898 111.768 170.003C103.131 175.768 93.7875 180.926 85.0028 186.564C83.935 187.25 79.497 190.205 78.2195 191.288C77.9388 191.526 77.3006 191.893 77.6066 192.114C79.042 193.151 81.5126 191.313 83.45 190.875C90.2715 189.332 99.7287 186.609 107.028 187.421C111.442 187.911 103.955 195.687 103.146 196.72C100.171 200.517 93.39 206.86 94.2787 211.569C94.831 214.495 108.762 204.865 109.847 204.159C111.822 202.875 113.598 201.68 115.65 200.498C117.429 199.474 112.174 202.619 110.379 203.628C104.27 207.06 94.7479 210.599 90.2332 215.259C89.8726 215.631 91.5193 215.291 92.1129 215.141C96.0995 214.133 99.9951 212.856 103.8 211.539C106.871 210.476 109.841 209.255 112.953 208.292" stroke="#BDBDBD" stroke-linecap="round" stroke-linejoin="round"/>
<path d="M61.2435 159.527C52.9079 160.838 43.8937 158.012 35.839 156.482C30.5747 155.482 25.3371 154.281 20.0126 153.497C18.6945 153.303 15.8045 152.735 14.363 153.316C12.5108 154.062 24.0298 162.822 24.3901 163.085C31.0069 167.92 39.4578 172.909 43.2845 179.668C45.2979 183.224 39.1663 181.958 37.3356 181.597C31.4855 180.445 26.0942 178.314 21.0602 175.688C16.2238 173.165 19.4435 174.315 22.033 175.175C29.9895 177.818 38.1601 179.929 46.2028 182.381C49.4077 183.358 58.3686 186.457 54.9578 186.723C48.8575 187.198 41.0114 184.441 35.2778 183.346C29.3853 182.22 25.2233 181.466 19.3391 180.753C18.5956 180.663 11.5968 179.485 10.2848 180.331C9.17869 181.044 24.1504 192.883 25.1758 193.718C25.365 193.872 31.5879 197.967 29.9649 199.325C28.5872 200.478 24.1801 200.335 22.4445 200.471C13.6822 201.158 23.2966 201.568 26.6724 201.888C30.3268 202.235 33.6608 202.513 37.2981 202.913C38.5232 203.048 39.7555 203.158 40.9648 203.366C41.2868 203.421 42.1537 203.573 41.8627 203.697C41.2188 203.972 40.4206 203.882 39.6927 203.908C33.7214 204.124 27.7021 203.934 21.7337 203.758C19.6203 203.695 14.3453 202.997 15.448 204.451C19.7227 210.088 32.8048 212.904 39.992 215.064C42.9894 215.965 45.9627 216.69 49.1212 217.054" stroke="#BDBDBD" stroke-linecap="round" stroke-linejoin="round"/>
<path d="M61.9776 110.219C59.604 111.888 57.2906 112.487 54.6166 113.655C48.8406 116.178 43.9136 119.913 38.3173 122.677C37.5197 123.071 35.1626 123.203 35.8636 123.739C36.8032 124.458 41.4352 123.778 42.4943 123.711C52.7592 123.064 62.5564 119.55 72.7854 118.543C73.7058 118.453 76.0592 118.208 75.5311 118.934C73.1598 122.198 67.8459 124.76 64.4312 126.756C60.0985 129.289 45.9908 134.619 50.9361 133.516C60.5348 131.374 68.9753 123.193 77.0208 118.124C81.9279 115.033 78.132 118.794 76.4659 120.499C70.99 126.103 65.0407 131.49 60.1957 137.622C58.0848 140.294 59.8182 139.795 62.036 138.879C68.0478 136.395 73.7482 133.303 79.8542 131.002C81.0098 130.566 85.138 128.621 86.7187 129.074C87.2541 129.228 82.3825 134.019 82.2495 134.158C80.4857 135.996 79.0034 137.942 77.459 139.94C77.2503 140.21 76.4671 140.816 76.5827 140.499C77.2168 138.761 78.994 136.133 79.9127 134.856C82.6263 131.086 85.7875 126.729 89.4936 123.739C91.1476 122.404 86.587 126.806 85.1121 128.32C82.0556 131.458 90.3406 127.846 91.6552 127.37C92.6581 127.007 99.0139 125.897 97.322 127.705C94.1172 131.131 90.7821 135.385 86.9231 138.153C85.1248 139.442 89.832 134.868 91.4215 133.348" stroke="#BDBDBD" stroke-linecap="round" stroke-linejoin="round"/>
<path d="M157 46L285 107V262L157 198.5V46Z" fill="#6FCF97" fill-opacity="0.2"/>
<path d="M430 114L528 161.5V282L430 235V114Z" fill="#6FCF97" fill-opacity="0.2"/>
<path d="M0 124L70 157.5V242L0 207.5V124Z" fill="#6FCF97" fill-opacity="0.2"/>
</svg>
