<svg width="10" height="14" viewBox="0 0 10 14" fill="none" xmlns="http://www.w3.org/2000/svg">
<path d="M0.920541 7.80879L6.77905 13.6586C6.9948 13.8862 7.26421 14 7.58782 14C7.91143 14 8.18085 13.8861 8.3966 13.6586L9.07951 12.9845C9.30121 12.7629 9.41206 12.4934 9.41206 12.1759C9.41206 11.8644 9.30124 11.5918 9.07951 11.3582L4.71247 6.99998L9.0797 2.63279C9.30134 2.41112 9.41219 2.14168 9.41219 1.82414C9.41219 1.51268 9.30137 1.23993 9.0797 1.00646L8.39672 0.332517C8.17506 0.110849 7.90536 3.14713e-05 7.58795 3.14713e-05C7.27041 3.14713e-05 7.00078 0.110849 6.77918 0.332517L0.920541 6.1823C0.698779 6.41593 0.587833 6.68852 0.587833 7.00002C0.587802 7.31752 0.698779 7.58712 0.920541 7.80879Z" fill="#BDBDBD"/>
</svg>
