<svg width="53" height="53" viewBox="0 0 53 53" fill="none" xmlns="http://www.w3.org/2000/svg">
<path d="M46.3333 1H6.66667C3.53705 1 1 3.53705 1 6.66667V46.3333C1 49.4629 3.53705 52 6.66667 52H46.3333C49.4629 52 52 49.4629 52 46.3333V6.66667C52 3.53705 49.4629 1 46.3333 1Z" stroke="#BDBDBD" stroke-linecap="round" stroke-linejoin="round"/>
<path d="M16.5833 20.8333C18.9306 20.8333 20.8333 18.9305 20.8333 16.5833C20.8333 14.2361 18.9306 12.3333 16.5833 12.3333C14.2361 12.3333 12.3333 14.2361 12.3333 16.5833C12.3333 18.9305 14.2361 20.8333 16.5833 20.8333Z" stroke="#BDBDBD" stroke-linecap="round" stroke-linejoin="round"/>
<path d="M52 35L37.8333 20.8333L6.66666 52" stroke="#BDBDBD" stroke-linecap="round" stroke-linejoin="round"/>
</svg>
